<svg version="1.1" id="Layer_1" xmlns="http://www.w3.org/2000/svg" xmlns:xlink="http://www.w3.org/1999/xlink" x="0px" y="0px"
	 width="100%" viewBox="0 0 860 786" enable-background="new 0 0 860 786" xml:space="preserve">
<path fill="#00A8E1" opacity="1.000000" stroke="none" 
	d="
M495.000000,787.000000 
	C330.000061,787.000000 165.500092,787.000000 1.000110,787.000000 
	C1.000074,525.000122 1.000074,263.000244 1.000037,1.000286 
	C287.666473,1.000191 574.332947,1.000191 860.999512,1.000095 
	C860.999695,262.999725 860.999695,524.999451 860.999878,786.999573 
	C739.166687,787.000000 617.333313,787.000000 495.000000,787.000000 
M785.263672,783.857910 
	C794.623352,781.656738 804.646729,780.909424 813.223572,776.993530 
	C844.347412,762.783691 859.780090,737.586975 859.907410,703.615906 
	C860.200378,625.456909 860.000427,547.296143 860.000366,469.136078 
	C860.000366,392.809204 860.007141,316.482330 859.996094,240.155472 
	C859.992615,215.831955 851.372192,195.096558 832.963867,179.127411 
	C817.975586,166.125153 800.220581,159.921265 780.169373,159.946243 
	C684.344299,160.065613 588.518982,159.999634 492.693787,159.999542 
	C490.861725,159.999542 489.029663,159.999527 487.197601,159.999527 
	C486.953186,159.433365 486.708771,158.867188 486.464355,158.301025 
	C528.825195,115.944695 571.186035,73.588364 613.855042,30.923889 
	C604.879761,22.347103 595.760193,13.632488 586.061462,4.364434 
	C534.556396,55.876778 482.774384,107.666122 430.410980,160.036926 
	C378.477234,108.102325 326.690704,56.314922 275.359802,4.983141 
	C266.227264,14.112998 257.207336,23.130304 247.808014,32.526878 
	C289.660767,74.847969 331.843353,117.502609 373.869995,159.999527 
	C372.559784,159.999527 370.597107,159.999527 368.634460,159.999527 
	C272.975891,159.999634 177.317322,160.019089 81.658752,159.986450 
	C57.233452,159.978119 36.760983,169.022186 20.836512,187.374619 
	C7.657388,202.563141 1.946446,220.702209 1.963214,240.828400 
	C2.044019,337.820129 1.999508,434.811920 1.999516,531.803711 
	C1.999520,589.132202 1.912074,646.460876 2.037155,703.789124 
	C2.098446,731.880066 13.364357,754.448730 36.600731,770.560547 
	C50.454060,780.166199 66.105415,784.020630 82.872429,784.018677 
	C315.019440,783.991516 547.166443,784.000488 779.313477,783.996460 
	C780.979370,783.996399 782.645325,783.937866 785.263672,783.857910 
z"/>
<path fill="#FFFFFF" opacity="1.000000" stroke="none" 
	d="
M784.787476,783.882263 
	C782.645325,783.937866 780.979370,783.996399 779.313477,783.996460 
	C547.166443,784.000488 315.019440,783.991516 82.872429,784.018677 
	C66.105415,784.020630 50.454060,780.166199 36.600731,770.560547 
	C13.364357,754.448730 2.098446,731.880066 2.037155,703.789124 
	C1.912074,646.460876 1.999520,589.132202 1.999516,531.803711 
	C1.999508,434.811920 2.044019,337.820129 1.963214,240.828400 
	C1.946446,220.702209 7.657388,202.563141 20.836512,187.374619 
	C36.760983,169.022186 57.233452,159.978119 81.658752,159.986450 
	C177.317322,160.019089 272.975891,159.999634 368.634460,159.999527 
	C370.597107,159.999527 372.559784,159.999527 373.869995,159.999527 
	C331.843353,117.502609 289.660767,74.847969 247.808014,32.526878 
	C257.207336,23.130304 266.227264,14.112998 275.359802,4.983141 
	C326.690704,56.314922 378.477234,108.102325 430.410980,160.036926 
	C482.774384,107.666122 534.556396,55.876778 586.061462,4.364434 
	C595.760193,13.632488 604.879761,22.347103 613.855042,30.923889 
	C571.186035,73.588364 528.825195,115.944695 486.464355,158.301025 
	C486.708771,158.867188 486.953186,159.433365 487.197601,159.999527 
	C489.029663,159.999527 490.861725,159.999542 492.693787,159.999542 
	C588.518982,159.999634 684.344299,160.065613 780.169373,159.946243 
	C800.220581,159.921265 817.975586,166.125153 832.963867,179.127411 
	C851.372192,195.096558 859.992615,215.831955 859.996094,240.155472 
	C860.007141,316.482330 860.000366,392.809204 860.000366,469.136078 
	C860.000427,547.296143 860.200378,625.456909 859.907410,703.615906 
	C859.780090,737.586975 844.347412,762.783691 813.223572,776.993530 
	C804.646729,780.909424 794.623352,781.656738 784.787476,783.882263 
M136.500000,238.000641 
	C117.745407,238.000641 98.990822,238.000641 80.398705,238.000641 
	C80.398705,394.419159 80.398705,550.134399 80.398705,705.736145 
	C314.391022,705.736145 547.985229,705.736145 781.689575,705.736145 
	C781.689575,549.757568 781.689575,394.042480 781.689575,238.000641 
	C566.753174,238.000641 352.126587,238.000641 136.500000,238.000641 
z"/>
<path fill="#00A8E1" opacity="1.000000" stroke="none" 
	d="
M137.000000,238.000641 
	C352.126587,238.000641 566.753174,238.000641 781.689575,238.000641 
	C781.689575,394.042480 781.689575,549.757568 781.689575,705.736145 
	C547.985229,705.736145 314.391022,705.736145 80.398705,705.736145 
	C80.398705,550.134399 80.398705,394.419159 80.398705,238.000641 
	C98.990822,238.000641 117.745407,238.000641 137.000000,238.000641 
M313.999298,532.500000 
	C313.999298,564.046265 313.999298,595.592529 313.999298,627.982605 
	C405.271820,575.825745 495.710846,524.145203 586.966187,471.998230 
	C495.622925,419.804901 405.122162,368.092957 313.999298,316.025543 
	C313.999298,388.589966 313.999298,460.044983 313.999298,532.500000 
z"/>
<path fill="#FFFFFF" opacity="1.000000" stroke="none" 
	d="
M313.999298,532.000000 
	C313.999298,460.044983 313.999298,388.589966 313.999298,316.025543 
	C405.122162,368.092957 495.622925,419.804901 586.966187,471.998230 
	C495.710846,524.145203 405.271820,575.825745 313.999298,627.982605 
	C313.999298,595.592529 313.999298,564.046265 313.999298,532.000000 
z"/>
</svg>